<?xml version="1.0" encoding="UTF-8" standalone="no"?>
<!-- Created with Inkscape (http://www.inkscape.org/) -->

<svg
   xmlns:dc="http://purl.org/dc/elements/1.1/"
   xmlns:cc="http://creativecommons.org/ns#"
   xmlns:rdf="http://www.w3.org/1999/02/22-rdf-syntax-ns#"
   xmlns:svg="http://www.w3.org/2000/svg"
   xmlns="http://www.w3.org/2000/svg"
   xmlns:sodipodi="http://sodipodi.sourceforge.net/DTD/sodipodi-0.dtd"
   xmlns:inkscape="http://www.inkscape.org/namespaces/inkscape"
   width="297mm"
   height="210mm"
   id="svg2991"
   version="1.1"
   inkscape:version="0.48.4 r9939"
   sodipodi:docname="quarto.svg">
  <defs
     id="defs2993" />
  <sodipodi:namedview
     inkscape:document-units="mm"
     pagecolor="#ffffff"
     bordercolor="#666666"
     borderopacity="1.0"
     inkscape:pageopacity="0.0"
     inkscape:pageshadow="2"
     inkscape:zoom="0.86831672"
     inkscape:cx="719.94278"
     inkscape:cy="254.90663"
     inkscape:current-layer="layer1"
     id="namedview2995"
     showgrid="false"
     inkscape:window-width="1366"
     inkscape:window-height="719"
     inkscape:window-x="0"
     inkscape:window-y="0"
     inkscape:window-maximized="1"
     showguides="true"
     inkscape:guide-bbox="true" />
  <metadata
     id="metadata2997">
    <rdf:RDF>
      <cc:Work
         rdf:about="">
        <dc:format>image/svg+xml</dc:format>
        <dc:type
           rdf:resource="http://purl.org/dc/dcmitype/StillImage" />
        <dc:title></dc:title>
      </cc:Work>
    </rdf:RDF>
  </metadata>
  <g
     inkscape:label="Layer 1"
     inkscape:groupmode="layer"
     id="layer1">
    <path
       style="fill:#000000;fill-opacity:1;stroke:none"
       d="M 177.15625 513.78125 C 147.80253 513.78125 124.03125 537.58378 124.03125 566.9375 C 124.03125 596.29122 147.80253 620.09375 177.15625 620.09375 C 206.50997 620.09375 230.3125 596.29122 230.3125 566.9375 C 230.3125 537.58378 206.50997 513.78125 177.15625 513.78125 z M 177.15625 545.65625 C 188.89774 545.65625 198.4375 555.19601 198.4375 566.9375 C 198.4375 578.67899 188.89774 588.1875 177.15625 588.1875 C 165.41476 588.1875 155.90625 578.67899 155.90625 566.9375 C 155.90625 555.19601 165.41476 545.65625 177.15625 545.65625 z "
       id="path3772-4" />
    <path
       style="fill:#000000;fill-opacity:1;stroke:none"
       d="M 177.15625 637.78125 C 147.80253 637.78125 124.03125 661.58378 124.03125 690.9375 C 124.03125 720.29122 147.80253 744.09375 177.15625 744.09375 C 206.50997 744.09375 230.3125 720.29122 230.3125 690.9375 C 230.3125 661.58378 206.50997 637.78125 177.15625 637.78125 z M 177.15625 669.6875 C 188.89774 669.6875 198.4375 679.19601 198.4375 690.9375 C 198.4375 702.67899 188.89774 712.21875 177.15625 712.21875 C 165.41476 712.21875 155.90625 702.67899 155.90625 690.9375 C 155.90625 679.19601 165.41476 669.6875 177.15625 669.6875 z "
       id="path3772-6" />
    <path
       style="fill:#000000;fill-opacity:1;stroke:none"
       d="M 0 637.78125 L 0 744.09375 L 106.3125 744.09375 L 106.3125 637.78125 L 0 637.78125 z M 53.15625 669.6875 C 64.897737 669.6875 74.40625 679.19601 74.40625 690.9375 C 74.40625 702.67899 64.897737 712.21875 53.15625 712.21875 C 41.414763 712.21875 31.875 702.67899 31.875 690.9375 C 31.875 679.19601 41.414763 669.6875 53.15625 669.6875 z "
       id="rect3770-4-0-0" />
    <path
       style="fill:#000000;fill-opacity:1;stroke:none;stroke-opacity:1"
       d="M 0 513.78125 L 0 620.09375 L 106.3125 620.09375 L 106.3125 513.78125 L 0 513.78125 z M 53.15625 545.65625 C 64.897737 545.65625 74.40625 555.19601 74.40625 566.9375 C 74.40625 578.67899 64.897737 588.1875 53.15625 588.1875 C 41.414763 588.1875 31.875 578.67899 31.875 566.9375 C 31.875 555.19601 41.414763 545.65625 53.15625 545.65625 z "
       id="rect3770-4-0" />
    <path
       style="font-size:medium;font-style:normal;font-variant:normal;font-weight:normal;font-stretch:normal;text-indent:0;text-align:start;text-decoration:none;line-height:normal;letter-spacing:normal;word-spacing:normal;text-transform:none;direction:ltr;block-progression:tb;writing-mode:lr-tb;text-anchor:start;baseline-shift:baseline;color:#000000;fill:#00ff00;fill-opacity:1;stroke:none;stroke-width:6.14409446999999975;marker:none;visibility:visible;display:inline;overflow:visible;enable-background:accumulate;font-family:Sans;-inkscape-font-specification:Sans"
       d="M 175.28125 637.53125 C 174.32886 637.54218 173.36875 637.6005 172.40625 637.65625 C 144.85853 639.25233 122.13912 660.98009 124.125 686.53125 C 125.88001 709.11204 147.52392 727.71102 172.875 725.875 C 194.9484 724.27637 213.08927 706.62633 211.03125 686.03125 C 209.27291 668.43508 192.16026 653.98362 172.25 655.90625 C 155.65706 657.50854 142.06063 671.06908 144.25 686.71875 C 145.60087 696.37471 153.34286 704.69642 163.40625 707.125 C 160.24084 704.42956 157.8776 700.83146 156.71875 696.71875 C 153.59873 693.87109 151.45319 690.07041 150.875 685.9375 C 149.1912 673.90169 159.92742 663.22808 172.96875 661.96875 C 188.94958 660.42556 202.94158 672.24926 204.375 686.59375 C 206.07836 703.63964 190.82741 718.4426 172.34375 719.78125 C 150.87013 721.33644 132.34388 705.39508 130.84375 686.09375 C 129.13093 664.05577 148.87938 645.1054 172.8125 643.71875 C 199.76618 642.15709 222.89461 662.23699 224.4375 686.5 L 224.4375 686.78125 C 225.96992 713.68224 201.72208 736.61733 172.4375 738.03125 L 172.78125 744.09375 C 205.79972 742.49955 233.03404 716.66876 231.09375 686.15625 C 229.45066 660.31764 206.38258 638.71974 178.125 637.59375 C 177.18308 637.5562 176.23364 637.52032 175.28125 637.53125 z "
       id="path4835-0" />
    <path
       style="font-size:medium;font-style:normal;font-variant:normal;font-weight:normal;font-stretch:normal;text-indent:0;text-align:start;text-decoration:none;line-height:normal;letter-spacing:normal;word-spacing:normal;text-transform:none;direction:ltr;block-progression:tb;writing-mode:lr-tb;text-anchor:start;baseline-shift:baseline;color:#000000;fill:#00ff00;fill-opacity:1;stroke:none;stroke-width:6.14409446999999975;marker:none;visibility:visible;display:inline;overflow:visible;enable-background:accumulate;font-family:Sans;-inkscape-font-specification:Sans"
       d="M 51.25 637.53125 C 50.297607 637.54218 49.3375 637.6005 48.375 637.65625 C 20.82728 639.25233 -1.86088 660.98009 0.125 686.53125 C 1.88001 709.11204 23.52392 727.71102 48.875 725.875 C 70.9484 724.27637 89.08927 706.62633 87.03125 686.03125 C 85.27291 668.43508 68.16026 653.98362 48.25 655.90625 C 31.65706 657.50854 18.02938 671.06908 20.21875 686.71875 C 21.569617 696.37471 29.311606 704.69642 39.375 707.125 C 36.209832 704.42882 33.845538 700.83214 32.6875 696.71875 C 29.576744 693.87278 27.420879 690.06283 26.84375 685.9375 C 25.15995 673.90169 35.92742 663.22808 48.96875 661.96875 C 64.94958 660.42556 78.91033 672.24926 80.34375 686.59375 C 82.04711 703.63964 66.79616 718.4426 48.3125 719.78125 C 26.83888 721.33644 8.3126303 705.39508 6.8125 686.09375 C 5.09968 664.05577 24.84813 645.1054 48.78125 643.71875 C 75.73493 642.15709 98.894617 662.23699 100.4375 686.5 L 100.4375 686.78125 C 101.96992 713.68224 77.69083 736.61733 48.40625 738.03125 L 48.75 744.09375 C 81.76847 742.49955 109.03404 716.66876 107.09375 686.15625 C 105.45066 660.31764 82.35133 638.71974 54.09375 637.59375 C 53.15183 637.5562 52.202393 637.52032 51.25 637.53125 z "
       id="path4835" />
    <path
       style="font-size:medium;font-style:normal;font-variant:normal;font-weight:normal;font-stretch:normal;text-indent:0;text-align:start;text-decoration:none;line-height:normal;letter-spacing:normal;word-spacing:normal;text-transform:none;direction:ltr;block-progression:tb;writing-mode:lr-tb;text-anchor:start;baseline-shift:baseline;color:#000000;fill:#00ff00;fill-opacity:1;stroke:none;stroke-width:6.14409446999999975;marker:none;visibility:visible;display:inline;overflow:visible;enable-background:accumulate;font-family:Sans;-inkscape-font-specification:Sans"
       d="M 51.25 513.53125 C 50.297608 513.54218 49.3375 513.56925 48.375 513.625 C 20.82728 515.22108 -1.86088 536.94884 0.125 562.5 C 1.88001 585.08079 23.52392 603.67977 48.875 601.84375 C 70.948398 600.24512 89.08927 582.59508 87.03125 562 C 85.27291 544.40383 68.160258 529.95237 48.25 531.875 C 31.65706 533.47729 18.02938 547.03783 20.21875 562.6875 C 21.568129 572.33282 29.29655 580.65485 39.34375 583.09375 C 36.191398 580.3972 33.839805 576.79292 32.6875 572.6875 C 29.576744 569.84153 27.420879 566.03158 26.84375 561.90625 C 25.15995 549.87044 35.92742 539.22808 48.96875 537.96875 C 64.949578 536.42556 78.91033 548.21801 80.34375 562.5625 C 82.04711 579.60839 66.796158 594.4426 48.3125 595.78125 C 26.83888 597.33644 8.31263 581.36383 6.8125 562.0625 C 5.09968 540.02452 24.84813 521.07415 48.78125 519.6875 C 75.734928 518.12584 98.894615 538.20574 100.4375 562.46875 L 100.4375 562.75 C 101.96992 589.65099 77.690828 612.58608 48.40625 614 L 48.75 620.09375 C 81.768468 618.49955 109.03404 592.63751 107.09375 562.125 C 105.45066 536.28639 82.35133 514.68849 54.09375 513.5625 C 53.15183 513.52495 52.202392 513.52032 51.25 513.53125 z "
       id="path4835-4" />
    <path
       style="font-size:medium;font-style:normal;font-variant:normal;font-weight:normal;font-stretch:normal;text-indent:0;text-align:start;text-decoration:none;line-height:normal;letter-spacing:normal;word-spacing:normal;text-transform:none;direction:ltr;block-progression:tb;writing-mode:lr-tb;text-anchor:start;baseline-shift:baseline;color:#000000;fill:#00ff00;fill-opacity:1;stroke:none;stroke-width:6.14409446999999975;marker:none;visibility:visible;display:inline;overflow:visible;enable-background:accumulate;font-family:Sans;-inkscape-font-specification:Sans"
       d="M 175.28125 513.53125 C 174.32886 513.54218 173.36875 513.56925 172.40625 513.625 C 144.85853 515.22108 122.13912 536.94884 124.125 562.5 C 125.88001 585.08079 147.52392 603.67977 172.875 601.84375 C 194.9484 600.24512 213.08927 582.59508 211.03125 562 C 209.27291 544.40383 192.16026 529.95237 172.25 531.875 C 155.65706 533.47729 142.06063 547.03783 144.25 562.6875 C 145.59938 572.33282 153.3278 580.65485 163.375 583.09375 C 160.22005 580.39605 157.8398 576.79592 156.6875 572.6875 C 153.57699 569.84157 151.4521 566.03138 150.875 561.90625 C 149.1912 549.87044 159.92742 539.22808 172.96875 537.96875 C 188.94958 536.42556 202.94158 548.21801 204.375 562.5625 C 206.07836 579.60839 190.82741 594.4426 172.34375 595.78125 C 150.87013 597.33644 132.34388 581.36383 130.84375 562.0625 C 129.13093 540.02452 148.87938 521.07415 172.8125 519.6875 C 199.76618 518.12584 222.89461 538.20574 224.4375 562.46875 L 224.4375 562.75 C 225.96992 589.65099 201.72208 612.58608 172.4375 614 L 172.78125 620.09375 C 205.79972 618.49955 233.03404 592.63751 231.09375 562.125 C 229.45066 536.28639 206.38258 514.68849 178.125 513.5625 C 177.18308 513.52495 176.23364 513.52032 175.28125 513.53125 z "
       id="path4835-0-4" />
    <rect
       style="fill:#00ff00;fill-opacity:1;stroke:none"
       id="rect6609"
       width="549.6106"
       height="549.6106"
       x="495.66498"
       y="194.48389" />
    <path
       style="stroke:none"
       d="M 0 265.75 L 0 372.0625 L 106.3125 372.0625 L 106.3125 265.75 L 0 265.75 z M 53.15625 297.625 C 64.897737 297.625 74.40625 307.16476 74.40625 318.90625 C 74.40625 330.64774 64.897737 340.15625 53.15625 340.15625 C 41.414763 340.15625 31.875 330.64774 31.875 318.90625 C 31.875 307.16476 41.414763 297.625 53.15625 297.625 z "
       id="rect3770" />
    <path
       style="stroke:none"
       d="M 177.15625 265.75 C 147.80253 265.75 124.03125 289.55253 124.03125 318.90625 C 124.03125 348.25997 147.80253 372.0625 177.15625 372.0625 C 206.50997 372.0625 230.3125 348.25997 230.3125 318.90625 C 230.3125 289.55253 206.50997 265.75 177.15625 265.75 z M 177.15625 297.625 C 188.89774 297.625 198.4375 307.16476 198.4375 318.90625 C 198.4375 330.64774 188.89774 340.15625 177.15625 340.15625 C 165.41476 340.15625 155.90625 330.64774 155.90625 318.90625 C 155.90625 307.16476 165.41476 297.625 177.15625 297.625 z "
       id="path3772" />
    <path
       style="stroke:none"
       d="M 0 389.75 L 0 496.0625 L 106.3125 496.0625 L 106.3125 389.75 L 0 389.75 z M 53.15625 421.65625 C 64.897737 421.65625 74.40625 431.16476 74.40625 442.90625 C 74.40625 454.64774 64.897737 464.1875 53.15625 464.1875 C 41.414763 464.1875 31.875 454.64774 31.875 442.90625 C 31.875 431.16476 41.414763 421.65625 53.15625 421.65625 z "
       id="rect3770-4" />
    <path
       style="stroke:none"
       d="M 177.15625 389.75 C 147.80253 389.75 124.03125 413.55253 124.03125 442.90625 C 124.03125 472.25997 147.80253 496.0625 177.15625 496.0625 C 206.50997 496.0625 230.3125 472.25997 230.3125 442.90625 C 230.3125 413.55253 206.50997 389.75 177.15625 389.75 z M 177.15625 421.65625 C 188.89774 421.65625 198.4375 431.16476 198.4375 442.90625 C 198.4375 454.64774 188.89774 464.1875 177.15625 464.1875 C 165.41476 464.1875 155.90625 454.64774 155.90625 442.90625 C 155.90625 431.16476 165.41476 421.65625 177.15625 421.65625 z "
       id="path3772-3" />
    <rect
       style="stroke:none"
       id="rect3770-6"
       width="106.29921"
       height="106.29921"
       x="248.03149"
       y="265.74802" />
    <path
       sodipodi:type="arc"
       style="stroke:none"
       id="path3772-8"
       sodipodi:cx="588.49493"
       sodipodi:cy="141.77969"
       sodipodi:rx="58.734329"
       sodipodi:ry="58.734329"
       d="m 647.22926,141.77969 a 58.734329,58.734329 0 1 1 -117.46866,0 58.734329,58.734329 0 1 1 117.46866,0 z"
       transform="matrix(0.90491552,0,0,0.90491552,-107.34135,190.59899)" />
    <rect
       style="stroke:none"
       id="rect3770-4-7"
       width="106.29921"
       height="106.29921"
       x="248.03149"
       y="389.76376" />
    <rect
       style="fill:#000000;fill-opacity:1;stroke:none"
       id="rect3770-4-0-4"
       width="106.29921"
       height="106.29921"
       x="248.03149"
       y="513.77954" />
    <rect
       style="fill:#000000;fill-opacity:1;stroke:none"
       id="rect3770-4-0-0-9"
       width="106.29921"
       height="106.29921"
       x="248.03149"
       y="637.79529" />
    <path
       sodipodi:type="arc"
       style="stroke:none"
       id="path3772-3-5"
       sodipodi:cx="588.49493"
       sodipodi:cy="141.77969"
       sodipodi:rx="58.734329"
       sodipodi:ry="58.734329"
       d="m 647.22926,141.77969 a 58.734329,58.734329 0 1 1 -117.46866,0 58.734329,58.734329 0 1 1 117.46866,0 z"
       transform="matrix(0.90491552,0,0,0.90491552,-107.34135,314.61474)" />
    <path
       sodipodi:type="arc"
       style="fill:#000000;fill-opacity:1;stroke:none"
       id="path3772-4-9"
       sodipodi:cx="588.49493"
       sodipodi:cy="141.77969"
       sodipodi:rx="58.734329"
       sodipodi:ry="58.734329"
       d="m 647.22926,141.77969 a 58.734329,58.734329 0 1 1 -117.46866,0 58.734329,58.734329 0 1 1 117.46866,0 z"
       transform="matrix(0.90491552,0,0,0.90491552,-107.34135,438.63048)" />
    <path
       sodipodi:type="arc"
       style="fill:#000000;fill-opacity:1;stroke:none"
       id="path3772-6-7"
       sodipodi:cx="588.49493"
       sodipodi:cy="141.77969"
       sodipodi:rx="58.734329"
       sodipodi:ry="58.734329"
       d="m 647.22926,141.77969 a 58.734329,58.734329 0 1 1 -117.46866,0 58.734329,58.734329 0 1 1 117.46866,0 z"
       transform="matrix(0.90491552,0,0,0.90491552,-107.34135,562.64623)" />
    <path
       style="font-size:medium;font-style:normal;font-variant:normal;font-weight:normal;font-stretch:normal;text-indent:0;text-align:start;text-decoration:none;line-height:normal;letter-spacing:normal;word-spacing:normal;text-transform:none;direction:ltr;block-progression:tb;writing-mode:lr-tb;text-anchor:start;baseline-shift:baseline;color:#000000;fill:#00ff00;fill-opacity:1;stroke:none;stroke-width:6.14409446999999975;marker:none;visibility:visible;display:inline;overflow:visible;enable-background:accumulate;font-family:Sans;-inkscape-font-specification:Sans"
       d="m 302.12944,637.58022 c -1.88384,-0.0751 -3.78899,-0.0496 -5.71399,0.0619 -27.54772,1.59608 -50.2487,23.32592 -48.26282,48.87708 1.75501,22.58079 23.3879,41.17912 48.73898,39.3431 22.0734,-1.59863 40.21932,-19.2433 38.1613,-39.83838 -1.75834,-17.59617 -18.86325,-32.04131 -38.77351,-30.11868 -16.59294,1.60229 -30.21514,15.15001 -28.02577,30.79968 1.76332,12.60416 14.42309,22.96171 28.91008,20.8633 11.08077,-1.60502 20.23976,-11.11968 17.7882,-21.82289 l 0,-0.0619 c -0.88658,-3.80238 -3.34908,-7.17001 -6.76836,-9.41016 -3.41929,-2.24015 -8.03595,-3.29874 -12.58439,-1.98108 -2.83104,0.82014 -5.21953,2.56002 -6.76835,4.95271 -1.54883,2.39268 -2.02789,5.84777 -0.034,8.6982 1.35877,1.94249 2.97807,2.57918 5.13579,2.90972 1.07886,0.16526 2.47153,0.18245 3.87735,-0.65004 1.40583,-0.8325 2.14275,-2.53042 2.14275,-3.90027 l -6.66632,0 c 0,0.003 0.2365,-0.84375 0.85029,-1.20722 0.6138,-0.36347 0.94045,-0.23904 0.88431,-0.24764 -0.11229,-0.0172 -0.98951,-0.77373 -0.5782,-0.18572 -0.57368,-0.82014 -0.49275,-1.3502 0.13605,-2.32159 0.6288,-0.97138 2.00759,-1.95448 3.06107,-2.25967 2.40008,-0.69529 4.61961,-0.20426 6.63231,1.11436 2.01269,1.31862 3.596,3.52981 4.11543,5.75753 1.62522,6.97026 -4.66714,13.50804 -12.27828,14.6105 -10.45502,1.51438 -19.90884,-6.23557 -21.22339,-15.632 -1.6838,-12.03581 9.06637,-22.69941 22.1077,-23.95874 15.98083,-1.54319 29.95952,10.26429 31.39294,24.60878 1.70336,17.04589 -13.55551,31.87548 -32.03917,33.21413 -21.47362,1.55519 -39.99433,-14.40807 -41.49446,-33.7094 -1.71282,-22.03798 18.03751,-40.98999 41.97063,-42.37664 26.95368,-1.56166 50.08711,18.51604 51.63,42.77905 l 0,0.27859 c 1.53242,26.90099 -22.71955,49.84665 -52.00413,51.26057 l 0.34012,6.06708 c 33.01847,-1.5942 60.27063,-27.43423 58.33034,-57.94674 -1.64309,-25.83861 -24.7329,-47.44154 -52.99048,-48.56753 z"
       id="path4835-0-3"
       inkscape:connector-curvature="0" />
    <path
       style="font-size:medium;font-style:normal;font-variant:normal;font-weight:normal;font-stretch:normal;text-indent:0;text-align:start;text-decoration:none;line-height:normal;letter-spacing:normal;word-spacing:normal;text-transform:none;direction:ltr;block-progression:tb;writing-mode:lr-tb;text-anchor:start;baseline-shift:baseline;color:#000000;fill:#00ff00;fill-opacity:1;stroke:none;stroke-width:6.14409446999999975;marker:none;visibility:visible;display:inline;overflow:visible;enable-background:accumulate;font-family:Sans;-inkscape-font-specification:Sans"
       d="m 426.14519,637.58022 c -1.88384,-0.0751 -3.78899,-0.0496 -5.71399,0.0619 -27.54772,1.59608 -50.2487,23.32592 -48.26282,48.87708 1.75501,22.58079 23.3879,41.17912 48.73898,39.3431 22.0734,-1.59863 40.21932,-19.2433 38.1613,-39.83838 -1.75834,-17.59617 -18.86325,-32.04131 -38.77351,-30.11868 -16.59294,1.60229 -30.21514,15.15001 -28.02577,30.79968 1.76332,12.60416 14.42309,22.96171 28.91008,20.8633 11.08077,-1.60502 20.23976,-11.11968 17.7882,-21.82289 l 0,-0.0619 c -0.88658,-3.80238 -3.34908,-7.17001 -6.76836,-9.41016 -3.41929,-2.24015 -8.03595,-3.29874 -12.58439,-1.98108 -2.83104,0.82014 -5.21953,2.56002 -6.76835,4.95271 -1.54883,2.39268 -2.02789,5.84777 -0.034,8.6982 1.35877,1.94249 2.97807,2.57918 5.13579,2.90972 1.07886,0.16526 2.47153,0.18245 3.87735,-0.65004 1.40583,-0.8325 2.14275,-2.53042 2.14275,-3.90027 l -6.66632,0 c 0,0.003 0.2365,-0.84375 0.85029,-1.20722 0.6138,-0.36347 0.94045,-0.23904 0.88431,-0.24764 -0.11229,-0.0172 -0.98951,-0.77373 -0.5782,-0.18572 -0.57368,-0.82014 -0.49275,-1.3502 0.13605,-2.32159 0.6288,-0.97138 2.00759,-1.95448 3.06107,-2.25967 2.40008,-0.69529 4.61961,-0.20426 6.63231,1.11436 2.01269,1.31862 3.596,3.52981 4.11543,5.75753 1.62522,6.97026 -4.66714,13.50804 -12.27828,14.6105 -10.45502,1.51438 -19.90884,-6.23557 -21.22339,-15.632 -1.6838,-12.03581 9.06637,-22.69941 22.1077,-23.95874 15.98083,-1.54319 29.95952,10.26429 31.39294,24.60878 1.70336,17.04589 -13.55551,31.87548 -32.03917,33.21413 -21.47362,1.55519 -39.99433,-14.40807 -41.49446,-33.7094 -1.71282,-22.03798 18.03751,-40.98999 41.97063,-42.37664 26.95368,-1.56166 50.08711,18.51604 51.63,42.77905 l 0,0.27859 c 1.53242,26.90099 -22.71955,49.84665 -52.00413,51.26057 l 0.34012,6.06708 c 33.01847,-1.5942 60.27063,-27.43423 58.33034,-57.94674 -1.64309,-25.83861 -24.7329,-47.44154 -52.99048,-48.56753 z"
       id="path4835-0-3-0"
       inkscape:connector-curvature="0" />
    <path
       style="font-size:medium;font-style:normal;font-variant:normal;font-weight:normal;font-stretch:normal;text-indent:0;text-align:start;text-decoration:none;line-height:normal;letter-spacing:normal;word-spacing:normal;text-transform:none;direction:ltr;block-progression:tb;writing-mode:lr-tb;text-anchor:start;baseline-shift:baseline;color:#000000;fill:#00ff00;fill-opacity:1;stroke:none;stroke-width:6.14409446999999975;marker:none;visibility:visible;display:inline;overflow:visible;enable-background:accumulate;font-family:Sans;-inkscape-font-specification:Sans"
       d="m 302.12943,513.56447 c -1.88384,-0.0751 -3.78899,-0.0496 -5.71399,0.0619 -27.54772,1.59608 -50.24869,23.32592 -48.26281,48.87708 1.75501,22.58079 23.38789,41.17912 48.73897,39.3431 22.0734,-1.59863 40.21932,-19.2433 38.1613,-39.83838 -1.75834,-17.59617 -18.86325,-32.04131 -38.77351,-30.11868 -16.59294,1.60229 -30.21514,15.15001 -28.02577,30.79968 1.76332,12.60416 14.42309,22.96171 28.91008,20.8633 11.08077,-1.60502 20.23976,-11.11968 17.7882,-21.82289 l 0,-0.0619 c -0.88658,-3.80238 -3.34908,-7.17001 -6.76836,-9.41016 -3.41929,-2.24015 -8.03595,-3.29874 -12.58439,-1.98108 -2.83104,0.82014 -5.21953,2.56002 -6.76835,4.95271 -1.54883,2.39268 -2.02789,5.84777 -0.034,8.6982 1.35877,1.94249 2.97807,2.57918 5.13579,2.90972 1.07886,0.16526 2.47153,0.18245 3.87735,-0.65004 1.40583,-0.8325 2.14275,-2.53042 2.14275,-3.90027 l -6.66632,0 c 0,0.003 0.2365,-0.84375 0.85029,-1.20722 0.6138,-0.36347 0.94045,-0.23904 0.88431,-0.24764 -0.11229,-0.0172 -0.98951,-0.77373 -0.5782,-0.18572 -0.57368,-0.82014 -0.49275,-1.3502 0.13605,-2.32159 0.6288,-0.97138 2.00759,-1.95448 3.06107,-2.25967 2.40008,-0.69529 4.61961,-0.20426 6.63231,1.11436 2.01269,1.31862 3.596,3.52981 4.11543,5.75753 1.62522,6.97026 -4.66714,13.50804 -12.27828,14.6105 -10.45502,1.51438 -19.90884,-6.23557 -21.22339,-15.632 -1.6838,-12.03581 9.06637,-22.69941 22.1077,-23.95874 15.98083,-1.54319 29.95952,10.26429 31.39294,24.60878 1.70336,17.04589 -13.55551,31.87548 -32.03917,33.21413 -21.47362,1.55519 -39.99433,-14.40807 -41.49446,-33.7094 -1.71282,-22.03798 18.03751,-40.98999 41.97063,-42.37664 26.95368,-1.56166 50.08711,18.51604 51.63,42.77905 l 0,0.27859 c 1.53242,26.90099 -22.71955,49.84665 -52.00413,51.26057 l 0.34012,6.06708 c 33.01847,-1.5942 60.27063,-27.43423 58.33034,-57.94674 -1.64309,-25.83861 -24.7329,-47.44154 -52.99048,-48.56753 z"
       id="path4835-0-3-5"
       inkscape:connector-curvature="0" />
    <path
       style="font-size:medium;font-style:normal;font-variant:normal;font-weight:normal;font-stretch:normal;text-indent:0;text-align:start;text-decoration:none;line-height:normal;letter-spacing:normal;word-spacing:normal;text-transform:none;direction:ltr;block-progression:tb;writing-mode:lr-tb;text-anchor:start;baseline-shift:baseline;color:#000000;fill:#00ff00;fill-opacity:1;stroke:none;stroke-width:6.14409446999999975;marker:none;visibility:visible;display:inline;overflow:visible;enable-background:accumulate;font-family:Sans;-inkscape-font-specification:Sans"
       d="m 426.14518,513.56447 c -1.88384,-0.0751 -3.78899,-0.0496 -5.71399,0.0619 -27.54772,1.59608 -50.2487,23.32592 -48.26282,48.87708 1.75501,22.58079 23.3879,41.17912 48.73898,39.3431 22.0734,-1.59863 40.21932,-19.2433 38.1613,-39.83838 -1.75834,-17.59617 -18.86325,-32.04131 -38.77351,-30.11868 -16.59294,1.60229 -30.21514,15.15001 -28.02577,30.79968 1.76332,12.60416 14.42309,22.96171 28.91008,20.8633 11.08077,-1.60502 20.23976,-11.11968 17.7882,-21.82289 l 0,-0.0619 c -0.88658,-3.80238 -3.34908,-7.17001 -6.76836,-9.41016 -3.41929,-2.24015 -8.03595,-3.29874 -12.58439,-1.98108 -2.83104,0.82014 -5.21953,2.56002 -6.76835,4.95271 -1.54883,2.39268 -2.02789,5.84777 -0.034,8.6982 1.35877,1.94249 2.97807,2.57918 5.13579,2.90972 1.07886,0.16526 2.47153,0.18245 3.87735,-0.65004 1.40583,-0.8325 2.14275,-2.53042 2.14275,-3.90027 l -6.66632,0 c 0,0.003 0.2365,-0.84375 0.85029,-1.20722 0.6138,-0.36347 0.94045,-0.23904 0.88431,-0.24764 -0.11229,-0.0172 -0.98951,-0.77373 -0.5782,-0.18572 -0.57368,-0.82014 -0.49275,-1.3502 0.13605,-2.32159 0.6288,-0.97138 2.00759,-1.95448 3.06107,-2.25967 2.40008,-0.69529 4.61961,-0.20426 6.63231,1.11436 2.01269,1.31862 3.596,3.52981 4.11543,5.75753 1.62522,6.97026 -4.66714,13.50804 -12.27828,14.6105 -10.45502,1.51438 -19.90884,-6.23557 -21.22339,-15.632 -1.6838,-12.03581 9.06637,-22.69941 22.1077,-23.95874 15.98083,-1.54319 29.95952,10.26429 31.39294,24.60878 1.70336,17.04589 -13.55551,31.87548 -32.03917,33.21413 -21.47362,1.55519 -39.99433,-14.40807 -41.49446,-33.7094 -1.71282,-22.03798 18.03751,-40.98999 41.97063,-42.37664 26.95368,-1.56166 50.08711,18.51604 51.63,42.77905 l 0,0.27859 c 1.53242,26.90099 -22.71955,49.84665 -52.00413,51.26057 l 0.34012,6.06708 c 33.01847,-1.5942 60.27063,-27.43423 58.33034,-57.94674 -1.64309,-25.83861 -24.7329,-47.44154 -52.99048,-48.56753 z"
       id="path4835-0-3-0-5"
       inkscape:connector-curvature="0" />
    <rect
       style="stroke:none;fill:#000000;fill-opacity:1"
       id="rect3770-3"
       width="113.71253"
       height="113.71253"
       x="514.61707"
       y="213.4359" />
    <rect
       style="stroke:none;fill:#000000;fill-opacity:1"
       id="rect3770-4-9"
       width="113.71253"
       height="113.71253"
       x="514.61707"
       y="346.10049" />
    <rect
       style="fill:#000000;fill-opacity:1;stroke:none"
       id="rect3770-4-0-5"
       width="113.71253"
       height="113.71253"
       x="514.61707"
       y="478.76526" />
    <rect
       style="fill:#000000;fill-opacity:1;stroke:none"
       id="rect3770-4-0-0-3"
       width="113.71253"
       height="113.71253"
       x="514.61707"
       y="611.42987" />
    <rect
       style="stroke:none;fill:#000000;fill-opacity:1"
       id="rect3770-6-4"
       width="113.71253"
       height="113.71253"
       x="779.94635"
       y="213.4359" />
    <rect
       style="stroke:none;fill:#000000;fill-opacity:1"
       id="rect3770-4-7-6"
       width="113.71253"
       height="113.71253"
       x="779.94635"
       y="346.10049" />
    <rect
       style="fill:#000000;fill-opacity:1;stroke:none"
       id="rect3770-4-0-4-0"
       width="113.71253"
       height="113.71253"
       x="779.94635"
       y="478.76526" />
    <rect
       style="fill:#000000;fill-opacity:1;stroke:none"
       id="rect3770-4-0-0-9-4"
       width="113.71253"
       height="113.71253"
       x="779.94635"
       y="611.42987" />
    <rect
       style="stroke:none;fill:#000000;fill-opacity:1"
       id="rect3770-6-4-2"
       width="113.71253"
       height="113.71253"
       x="647.28174"
       y="213.4359" />
    <rect
       style="stroke:none;fill:#000000;fill-opacity:1"
       id="rect3770-4-7-6-9"
       width="113.71253"
       height="113.71253"
       x="647.28174"
       y="346.10049" />
    <rect
       style="fill:#000000;fill-opacity:1;stroke:none"
       id="rect3770-4-0-4-0-4"
       width="113.71253"
       height="113.71253"
       x="647.28174"
       y="478.76526" />
    <rect
       style="fill:#000000;fill-opacity:1;stroke:none"
       id="rect3770-4-0-0-9-4-9"
       width="113.71253"
       height="113.71253"
       x="647.28174"
       y="611.42987" />
    <rect
       style="stroke:none;fill:#000000;fill-opacity:1"
       id="rect3770-6-4-3"
       width="113.71253"
       height="113.71253"
       x="912.61096"
       y="213.43587" />
    <rect
       style="stroke:none;fill:#000000;fill-opacity:1"
       id="rect3770-4-7-6-5"
       width="113.71253"
       height="113.71253"
       x="912.61096"
       y="346.10049" />
    <rect
       style="fill:#000000;fill-opacity:1;stroke:none"
       id="rect3770-4-0-4-0-40"
       width="113.71253"
       height="113.71253"
       x="912.61096"
       y="478.76526" />
    <rect
       style="fill:#000000;fill-opacity:1;stroke:none"
       id="rect3770-4-0-0-9-4-1"
       width="113.71253"
       height="113.71253"
       x="912.61096"
       y="611.42987" />
    <g
       style="font-size:56px;font-style:normal;font-variant:normal;font-weight:bold;font-stretch:normal;line-height:125%;letter-spacing:0px;word-spacing:0px;fill:#00ff00;fill-opacity:1;stroke:none;font-family:URW Bookman L;-inkscape-font-specification:URW Bookman L Bold"
       id="text6848">
      <path
         d="m 722.85679,411.86884 -3.864,-2.072 c -3.80799,6.77599 -8.736,10.36 -14.28,10.36 -1.68,0 -2.856,-0.392 -3.192,-1.064 -0.224,-0.504 -0.224,-0.50401 -0.224,-4.032 l 0,-18.592 c 0,-3.584 0.672,-4.368 3.808,-4.704 l 1.12,-0.112 0,-4.592 -19.656,0 0,4.592 1.12,0.112 c 3.136,0.336 3.808,1.12 3.808,4.704 l 0,19.32 c 0,3.58399 -0.672,4.368 -3.808,4.704 l -1.12,0.112 0,4.592 30.464,0 5.824,-13.328"
         style="font-family:URW Bookman L;-inkscape-font-specification:URW Bookman L Bold"
         id="path6874" />
    </g>
    <g
       style="font-size:56px;font-style:normal;font-variant:normal;font-weight:bold;font-stretch:normal;line-height:125%;letter-spacing:0px;word-spacing:0px;fill:#00ff00;fill-opacity:1;stroke:none;font-family:URW Bookman L;-inkscape-font-specification:URW Bookman L Bold"
       id="text6848-7">
      <path
         d="m 857.08509,396.46884 c 0,-3.584 0.672,-4.368 3.808,-4.704 l 1.12,-0.112 0,-4.592 -19.656,0 0,4.592 1.12,0.112 c 3.136,0.336 3.808,1.12 3.808,4.704 l 0,15.792 c 0,2.8 -0.336,4.312 -1.176,5.488 -1.064,1.512 -3.248,2.464 -5.656,2.464 -3.024,0 -5.992,-1.512 -5.992,-3.136 0,-0.28 0.168,-0.56 0.504,-0.952 1.12,-1.288 1.512,-2.24 1.512,-3.64 0,-2.464 -1.848,-4.256 -4.312,-4.256 -3.304,0 -5.656,2.632 -5.656,6.384 0,6.60799 6.16001,11.312 14.952,11.312 5.88,0 11.088,-1.96 13.664,-5.208 1.68,-2.016 1.96,-3.41601 1.96,-9.016 l 0,-15.232"
         style="font-family:URW Bookman L;-inkscape-font-specification:URW Bookman L Bold"
         id="path6877" />
    </g>
  </g>
</svg>
